<svg xmlns="http://www.w3.org/2000/svg" xmlns:xlink="http://www.w3.org/1999/xlink" width="1080" zoomAndPan="magnify" viewBox="0 0 810 809.999993" height="1080" preserveAspectRatio="xMidYMid meet" version="1.0"><defs><clipPath id="742c635563"><path d="M 55 164 L 755.550781 164 L 755.550781 646 L 55 646 Z M 55 164 " clip-rule="nonzero"/></clipPath></defs><rect x="-81" width="972" fill="#ffffff" y="-80.999999" height="971.999992" fill-opacity="1"/><rect x="-81" width="972" fill="#ffffff" y="-80.999999" height="971.999992" fill-opacity="1"/><path fill="#ffffff" d="M 411.875 448.289062 C 407.472656 448.289062 403.125 447.601562 398.808594 446.199219 L 198.566406 379.417969 C 194.9375 388.851562 193.121094 401.007812 193.121094 418.75 C 206.1875 426.3125 218.921875 441.523438 218.921875 467.738281 C 218.921875 483.800781 210.890625 495.351562 203.988281 503.027344 C 233.691406 537.492188 315.4375 562.273438 411.902344 562.273438 C 533.449219 562.273438 631.945312 522.941406 631.945312 474.503906 C 631.945312 463.804688 631.945312 420.097656 631.945312 377.1875 L 424.882812 446.199219 C 420.621094 447.601562 416.273438 448.289062 411.875 448.289062 Z M 411.875 448.289062 " fill-opacity="1" fill-rule="nonzero"/><g clip-path="url(#742c635563)"><path fill="#ffffff" d="M 746.285156 275.0625 L 416.21875 165.039062 C 413.359375 164.105469 410.359375 164.105469 407.527344 165.039062 L 77.460938 275.0625 C 71.851562 276.929688 68.054688 282.183594 68.054688 288.097656 C 68.054688 294.011719 71.851562 299.265625 77.460938 301.136719 L 153.128906 326.359375 C 135.71875 346.546875 125.597656 375.015625 121.882812 421.335938 C 109.917969 426.972656 101.472656 438.992188 101.472656 453.132812 C 101.472656 467.515625 110.109375 479.757812 122.433594 485.285156 C 111.679688 578.941406 55.59375 610.160156 55.59375 618.164062 C 55.59375 622.234375 99.027344 645.671875 109.339844 645.671875 C 125.292969 645.671875 163.582031 618.605469 163.582031 560.15625 C 163.582031 525.71875 160.472656 499.699219 157.199219 481.242188 C 166.027344 474.832031 172.164062 464.902344 172.164062 453.132812 C 172.164062 440.285156 164.984375 429.558594 154.722656 423.371094 C 160.527344 346.933594 184.15625 334.144531 241.3125 310.433594 C 247.03125 308.179688 257.84375 303.804688 264.085938 301.21875 C 275.308594 296.597656 285.457031 292.472656 295.195312 288.566406 C 326.632812 276.078125 353.203125 266.039062 373.476562 258.585938 C 395.671875 250.664062 405.628906 247.777344 405.988281 247.664062 C 414.484375 244.804688 423.949219 249.398438 426.863281 258.0625 C 429.75 266.699219 425.132812 276.050781 416.464844 278.96875 C 415.804688 279.1875 377.1875 290.214844 276.710938 331.75 C 270.246094 334.417969 264.085938 336.839844 258.226562 339.148438 C 246.316406 343.851562 236.441406 347.621094 228.164062 351.417969 L 407.527344 411.1875 C 408.957031 411.625 410.386719 411.875 411.875 411.875 C 413.359375 411.875 414.789062 411.625 416.21875 411.160156 L 746.285156 301.136719 C 751.894531 299.265625 755.691406 294.011719 755.691406 288.097656 C 755.691406 282.183594 751.894531 276.929688 746.285156 275.0625 Z M 746.285156 275.0625 " fill-opacity="1" fill-rule="nonzero"/></g></svg>