<?xml version="1.0" encoding="UTF-8" standalone="no"?>
<!-- Created with Inkscape (http://www.inkscape.org/) -->

<svg
   width="20.123047"
   height="297.77148"
   viewBox="0 0 20.123047 297.77148"
   version="1.1"
   id="svg1"
   inkscape:export-filename="line.svg"
   inkscape:export-xdpi="96"
   inkscape:export-ydpi="96"
   xmlns:inkscape="http://www.inkscape.org/namespaces/inkscape"
   xmlns:sodipodi="http://sodipodi.sourceforge.net/DTD/sodipodi-0.dtd"
   xmlns="http://www.w3.org/2000/svg"
   xmlns:svg="http://www.w3.org/2000/svg">
  <sodipodi:namedview
     id="namedview1"
     pagecolor="#ffffff"
     bordercolor="#999999"
     borderopacity="1"
     inkscape:showpageshadow="2"
     inkscape:pageopacity="0"
     inkscape:pagecheckerboard="true"
     inkscape:deskcolor="#d1d1d1"
     inkscape:document-units="px"
     showborder="true"
     inkscape:zoom="1.2807391"
     inkscape:cx="588.72254"
     inkscape:cy="645.33047"
     inkscape:window-width="1920"
     inkscape:window-height="991"
     inkscape:window-x="-9"
     inkscape:window-y="-9"
     inkscape:window-maximized="1"
     inkscape:current-layer="layer1" />
  <defs
     id="defs1" />
  <g
     inkscape:label="Layer 1"
     inkscape:groupmode="layer"
     id="layer1"
     transform="translate(-818.16211,-490.07617)">
    <g
       id="g12"
       style="fill:#ffffff">
      <path
         id="path5"
         style="color:#000000;fill:#ffffff;-inkscape-stroke:none"
         d="M 826.625,490.07617 V 570.125 c -4.78456,0.77018 -8.46289,4.93652 -8.46289,9.93164 0,4.99514 3.67833,9.16312 8.46289,9.93359 v 162.97852 h 3 V 590.01758 c 4.87945,-0.68723 8.66016,-4.89822 8.66016,-9.96094 -10e-6,-5.0627 -3.78072,-9.27203 -8.66016,-9.95898 v -80.02149 z m 1.59766,82.91992 c 3.91756,0 7.06249,3.14296 7.0625,7.06055 0,3.91759 -3.14493,7.0625 -7.0625,7.0625 -3.91759,0 -7.06055,-3.14491 -7.06055,-7.0625 0,-3.91758 3.14296,-7.06054 7.06055,-7.06055 z" />
      <g
         id="path3"
         style="fill:#ffffff">
        <path
           style="color:#000000;display:inline;fill:#ffffff;stroke-dasharray:12, 3;-inkscape-stroke:none"
           d="m 828.12603,747.52945 v 40.31807"
           id="path9" />
        <path
           style="color:#000000;fill:#ffffff;stroke-dasharray:12, 3;-inkscape-stroke:none"
           d="m 826.62695,747.5293 v 12 h 3 v -12 z m 0,15 v 12 h 3 v -12 z m 0,15 v 10.31836 h 3 V 777.5293 Z"
           id="path10" />
      </g>
    </g>
  </g>
</svg>
